<svg width="30" height="18" viewBox="0 0 67 71" xmlns="http://www.w3.org/2000/svg"><path d="M62.0271467 11.8460115c1.2760481.4557315 2.2786422 1.2304633 3.0078125 2.3242188.7291703 1.0937554 1.09375 2.3242119 1.09375 3.6914062 0 5.7422162-.6835869 11.2336978-2.0507812 16.4746094-1.3671944 5.2409116-3.0989479 9.7525852-5.1953125 13.5351562-2.0963647 3.782571-4.5344913 7.2005056-7.3144531 10.2539063-2.7799619 3.0534007-5.4687371 5.5143136-8.0664063 7.3828125-2.5976692 1.8684989-5.1725133 3.3040314-7.7246094 4.3066406-1.6406332.7291703-3.2812418.7291703-4.921875 0-3.8281441-1.5494869-7.4967272-3.8508962-11.0058593-6.9042969-3.5091322-3.0534006-6.7219907-6.74477-9.6386719-11.0742187-2.91668127-4.3294487-5.26366301-9.4563506-7.04101565-15.3808594C1.39237222 30.5308777.50370923 24.333023.50370923 17.8616365c0-.5468777.06835869-1.070961.20507812-1.5722656.13671944-.5013046.31900928-.9798154.546875-1.4355469.22786573-.4557314.50130049-.8658836.8203125-1.2304687.31901201-.3645852.6835917-.7063787 1.09375-1.0253907.4101583-.319012.88866914-.5696605 1.43554688-.7519531L30.8552717.90851151c.7291703-.36458515 1.5494746-.546875 2.4609375-.546875.9114629 0 1.7317672.18228985 2.4609375.546875l26.25 10.93749999ZM55.6013655 27.431949c1.0937554-1.0026092 1.0937554-2.0507758 0-3.1445312l-3.0078125-3.0078125c-.4557315-.4557315-.9798148-.6835938-1.5722656-.6835938-.5924509 0-1.1165342.2278623-1.5722657.6835938L28.9412092 41.7874178l-9.5703125-9.5703125c-.4557314-.4557315-.9798147-.6835938-1.5722656-.6835938-.5924509 0-1.1165342.2278623-1.5722656.6835938l-3.0078125 3.0078125c-.4557315.4557314-.6835938.9798147-.6835938 1.5722656 0 .5924509.2278623 1.1165342.6835938 1.5722656l14.21875 14.21875c1.0026092 1.0026092 2.0052033 1.0026092 3.0078125 0l25.15625-25.15625Z" fill="#00B4B3" fill-rule="evenodd"/></svg>